<svg width="613" height="444" viewBox="0 0 613 444" fill="none" xmlns="http://www.w3.org/2000/svg">
<g clip-path="url(#clip0)">
<path d="M537.746 216.269H532.289V432.472H537.746V216.269Z" fill="#3F3D56"/>
<path d="M588.105 243.822C588.452 319.423 535.427 380.956 535.427 380.956C535.427 380.956 481.838 319.915 481.49 244.315C481.143 168.714 534.169 107.181 534.169 107.181C534.169 107.181 587.758 168.221 588.105 243.822Z" fill="#C0C0C9"/>
<path d="M428.641 317.996H425.834V429.194H428.641V317.996Z" fill="#3F3D56"/>
<path d="M454.541 332.167C454.72 371.05 427.448 402.698 427.448 402.698C427.448 402.698 399.886 371.304 399.707 332.42C399.528 293.537 426.801 261.889 426.801 261.889C426.801 261.889 454.363 293.284 454.541 332.167Z" fill="#C0C0C9"/>
<path d="M483.958 444C525.953 444 559.996 438.765 559.996 432.308C559.996 425.852 525.953 420.617 483.958 420.617C441.964 420.617 407.921 425.852 407.921 432.308C407.921 438.765 441.964 444 483.958 444Z" fill="#C0C0C9"/>
<path d="M490.23 159.827C483.788 148.908 471.042 148.399 471.042 148.399C471.042 148.399 458.623 146.806 450.656 163.435C443.23 178.935 432.982 193.9 449.006 197.529L451.901 188.492L453.693 198.202C455.975 198.366 458.264 198.405 460.55 198.319C477.71 197.763 494.054 198.482 493.527 192.305C492.828 184.093 496.428 170.332 490.23 159.827Z" fill="#2F2E41"/>
<path d="M467.03 180.388C467.03 180.388 475.356 192.08 470.36 201.544C465.365 211.009 482.016 221.03 482.016 221.03L494.226 194.307C494.226 194.307 479.796 184.842 483.681 175.935L467.03 180.388Z" fill="#FBBEBE"/>
<path d="M472.58 185.399C480.55 185.399 487.011 178.918 487.011 170.924C487.011 162.93 480.55 156.449 472.58 156.449C464.611 156.449 458.15 162.93 458.15 170.924C458.15 178.918 464.611 185.399 472.58 185.399Z" fill="#FBBEBE"/>
<path d="M422.64 187.657L434.7 172.05C434.7 172.05 438.946 155.69 445.096 156.52C451.246 157.349 442.667 176.139 442.667 176.139L430.684 193.414L422.64 187.657Z" fill="#FBBEBE"/>
<path d="M483.681 395.286L487.566 415.885L495.891 418.112L493.671 393.616L483.681 395.286Z" fill="#FBBEBE"/>
<path d="M567.489 373.017L582.474 393.616L588.579 396.399L593.575 388.049L578.589 368.563L567.489 373.017Z" fill="#FBBEBE"/>
<path d="M480.351 212.122L471.093 199.897C471.093 199.897 453.155 203.215 451.49 204.885C449.825 206.555 455.93 237.175 455.93 237.175C455.93 237.175 457.04 245.526 462.035 249.98L467.03 253.32L508.102 244.969L509.646 226.638C510.209 219.962 509.374 213.241 507.197 206.906C505.019 200.572 501.547 194.763 497.001 189.853L489.855 190.833L480.351 212.122Z" fill="#575A89"/>
<path d="M453.71 205.998L450.935 204.885L438.169 203.771C438.169 203.771 433.729 202.658 434.839 200.431C435.949 198.204 437.059 197.647 434.839 197.09C432.619 196.534 432.064 195.977 432.619 194.307C433.174 192.637 436.504 189.296 436.504 189.296L427.069 181.502C427.069 181.502 426.558 181.864 425.733 182.535C421.048 186.339 406.225 200.066 417.079 213.792C429.844 229.937 444.829 239.402 457.04 236.061L453.71 205.998Z" fill="#575A89"/>
<path d="M465.92 250.537V258.331C465.92 258.331 460.925 267.795 462.59 276.703C464.255 285.61 464.81 290.064 464.81 290.064C464.991 297.64 466.301 305.146 468.695 312.333C472.58 323.468 459.815 396.4 475.91 397.513C492.006 398.626 500.886 399.74 505.881 394.173C510.877 388.605 497.556 292.848 497.556 292.848C497.556 292.848 543.068 388.049 552.503 384.152C561.938 380.254 585.804 371.347 583.029 366.336C580.254 361.326 510.322 249.98 510.322 249.98L508.102 244.969L465.92 250.537Z" fill="#2F2E41"/>
<path d="M492.561 411.988C492.561 411.988 483.681 411.431 483.681 414.215C483.681 416.998 479.241 426.463 479.241 426.463C479.241 426.463 475.911 437.597 484.791 436.484C493.671 435.37 499.221 425.349 499.221 425.349L497.001 414.771L492.561 411.988Z" fill="#2F2E41"/>
<path d="M585.249 392.503C585.249 392.503 577.479 387.492 578.034 390.832C578.589 394.173 579.144 403.08 583.029 403.637C586.914 404.194 598.569 407.534 599.124 408.648C599.679 409.761 613 414.215 613 406.977C613 399.74 604.675 394.173 604.675 394.173L595.239 386.935C595.239 386.935 589.134 386.378 588.024 390.276C586.914 394.173 585.249 392.503 585.249 392.503Z" fill="#2F2E41"/>
<path d="M472.602 157.698C477.692 157.698 481.818 153.559 481.818 148.454C481.818 143.349 477.692 139.21 472.602 139.21C467.513 139.21 463.387 143.349 463.387 148.454C463.387 153.559 467.513 157.698 472.602 157.698Z" fill="#2F2E41"/>
<path d="M462.417 146.022C462.417 143.739 463.26 141.536 464.782 139.839C466.304 138.142 468.399 137.07 470.662 136.83C470.34 136.796 470.016 136.778 469.692 136.778C467.248 136.778 464.904 137.752 463.176 139.485C461.448 141.219 460.477 143.57 460.477 146.022C460.477 148.473 461.448 150.824 463.176 152.558C464.904 154.292 467.248 155.265 469.692 155.265C470.016 155.265 470.34 155.248 470.662 155.213C468.399 154.973 466.304 153.901 464.782 152.204C463.26 150.507 462.417 148.305 462.417 146.022Z" fill="#2F2E41"/>
<path d="M487.381 158.774L474.79 152.158L457.401 154.865L453.804 170.803L462.76 170.457L465.262 164.602V170.361L469.394 170.202L471.792 160.879L473.291 170.803L487.981 170.502L487.381 158.774Z" fill="#2F2E41"/>
<path d="M486.628 251.827L467.209 252.353C467.209 252.353 450.64 255.587 451.569 248.879C452.499 242.17 468.663 244.517 468.663 244.517L486.358 241.809L486.628 251.827Z" fill="#FBBEBE"/>
<path d="M501.991 188.909C502.968 188.761 503.964 188.967 504.802 189.49C505.64 190.014 506.264 190.82 506.563 191.764C510.364 203.781 522.076 243.993 510.44 249.51C496.734 256.008 486.733 255.722 486.733 255.722L481.379 242.501L486.252 237.913L491.455 204.356L493.949 190.131L501.991 188.909Z" fill="#575A89"/>
<path opacity="0.4" d="M498.389 211.287L496.169 233.556L476.743 241.907L498.389 236.897V211.287Z" fill="black"/>
<path d="M393.627 137.77C399.884 139.433 405.297 143.377 408.808 148.832L410.623 151.652L410.715 151.768L442.564 161.117C443.148 161.288 443.642 161.682 443.939 162.215C444.236 162.748 444.312 163.376 444.152 163.964L441.679 173.059C441.599 173.355 441.461 173.632 441.273 173.875C441.085 174.117 440.851 174.32 440.585 174.471C440.319 174.623 440.025 174.72 439.722 174.757C439.418 174.795 439.11 174.771 438.815 174.689L406.957 165.757L406.956 165.757L403.757 166.971C397.865 169.205 391.403 169.425 385.374 167.597L393.627 137.77Z" fill="#3F3D56"/>
<path d="M427.168 164.144C427.47 163.11 426.147 161.812 424.214 161.244C422.281 160.677 420.47 161.055 420.168 162.089C419.866 163.124 421.189 164.422 423.122 164.989C425.055 165.557 426.866 165.178 427.168 164.144Z" fill="#575A89"/>
<path d="M425.541 165.098C426.28 165.098 426.878 164.497 426.878 163.756C426.878 163.016 426.28 162.415 425.541 162.415C424.803 162.415 424.204 163.016 424.204 163.756C424.204 164.497 424.803 165.098 425.541 165.098Z" fill="#3F3D56"/>
<path d="M396.289 154.995C398.945 146.779 398.096 139.142 394.392 137.938C390.688 136.733 385.532 142.417 382.876 150.633C380.22 158.848 381.07 166.485 384.774 167.69C388.478 168.895 393.633 163.211 396.289 154.995Z" fill="white"/>
<path opacity="0.4" d="M395.299 154.705C397.859 146.788 397.163 139.41 393.795 137.805C393.998 137.831 394.197 137.875 394.392 137.938C398.096 139.142 398.945 146.779 396.289 154.995C393.634 163.211 388.478 168.895 384.774 167.69C384.64 167.646 384.508 167.593 384.381 167.532C388.024 167.997 392.783 162.488 395.299 154.705Z" fill="black"/>
<path d="M394.045 137.799L321.761 81.5552C308.979 71.5377 296.713 60.8745 285.01 49.607C264.405 29.9056 236.433 14.154 203.866 5.76774C124.742 -14.6072 62.0598 21.5201 33.5501 74.5674C-10.0158 155.629 -43.4033 287.171 149.768 217.151C192.014 201.838 234.777 200.21 267.202 192.144L384.61 167.862L394.045 137.799Z" fill="white"/>
<path d="M177.033 43.1551C179.179 43.1551 180.918 41.4103 180.918 39.2579C180.918 37.1056 179.179 35.3608 177.033 35.3608C174.888 35.3608 173.148 37.1056 173.148 39.2579C173.148 41.4103 174.888 43.1551 177.033 43.1551Z" fill="#F2F2F2"/>
<path d="M252.505 48.2658H251.494V47.2515H251.296V48.2658H250.285V48.464H251.296V49.4784H251.494V48.464H252.505V48.2658Z" fill="#F2F2F2"/>
<path d="M354.073 132.888H353.062V131.874H352.864V132.888H351.853V133.087H352.864V134.101H353.062V133.087H354.073V132.888Z" fill="#F2F2F2"/>
<path d="M346.858 159.055H345.847V158.041H345.649V159.055H344.638V159.253H345.649V160.267H345.847V159.253H346.858V159.055Z" fill="#F2F2F2"/>
<path d="M36.6029 181.324H35.5916V180.31H35.3941V181.324H34.3828V181.522H35.3941V182.536H35.5916V181.522H36.6029V181.324Z" fill="#F2F2F2"/>
<path d="M81.0044 59.9567H79.9931V58.9424H79.7955V59.9567H78.7843V60.1549H79.7955V61.1693H79.9931V60.1549H81.0044V59.9567Z" fill="#F2F2F2"/>
<path d="M253.615 163.509H252.604V162.494H252.406V163.509H251.395V163.707H252.406V164.721H252.604V163.707H253.615V163.509Z" fill="#F2F2F2"/>
<path d="M147.607 24.3264H146.595V23.312H146.398V24.3264H145.386V24.5246H146.398V25.5389H146.595V24.5246H147.607V24.3264Z" fill="#F2F2F2"/>
<path d="M147.995 104.483L146.735 104.678C147.129 107.206 147.44 109.789 147.668 112.344L148.939 112.233C148.711 109.644 148.395 107.039 147.995 104.483Z" fill="#E6E6E6"/>
<path d="M144.548 89.2622L143.327 89.6352C144.066 92.0848 144.726 94.5957 145.287 97.0954L146.535 96.8115C145.964 94.2839 145.292 91.7452 144.548 89.2622Z" fill="#E6E6E6"/>
<path d="M139.048 74.6646L137.888 75.199C138.954 77.5317 139.953 79.9256 140.858 82.3196L142.051 81.8686C141.135 79.4468 140.131 77.0195 139.048 74.6646Z" fill="#E6E6E6"/>
<path d="M131.611 60.98L130.534 61.6648C131.905 63.8248 133.221 66.0629 134.442 68.3065L135.563 67.6941C134.331 65.4227 132.999 63.1623 131.611 60.98Z" fill="#E6E6E6"/>
<path d="M122.364 48.437L121.393 49.2665C123.047 51.2151 124.657 53.2527 126.177 55.3126L127.199 54.5499C125.667 52.4677 124.041 50.4078 122.364 48.437Z" fill="#E6E6E6"/>
<path d="M111.497 37.269L110.648 38.221C112.557 39.9302 114.428 41.7284 116.209 43.5601L117.125 42.6637C115.321 40.8098 113.429 38.9949 111.497 37.269Z" fill="#E6E6E6"/>
<path d="M99.2201 27.6821L98.5042 28.7399C100.624 30.1707 102.722 31.6961 104.737 33.2717L105.525 32.264C103.483 30.6718 101.362 29.1296 99.2201 27.6821Z" fill="#E6E6E6"/>
<path d="M88.0476 21.0234V22.4709C89.3741 23.1668 90.6895 23.8962 91.9771 24.6422L92.6154 23.5343C91.1168 22.6658 89.5942 21.8288 88.0476 21.0234Z" fill="#E6E6E6"/>
<path d="M148.081 120.242L149.357 120.218C149.38 121.51 149.382 122.81 149.362 124.08L148.087 124.06C148.106 122.804 148.104 121.519 148.081 120.242Z" fill="#E6E6E6"/>
<path d="M73.0678 214.159L71.8079 214.354C72.2019 216.881 72.5127 219.464 72.7403 222.02L74.0113 221.908C73.7837 219.32 73.4674 216.714 73.0678 214.159Z" fill="#E6E6E6"/>
<path d="M69.621 198.938L68.3999 199.311C69.1381 201.76 69.7986 204.271 70.3591 206.771L71.6079 206.487C71.0362 203.959 70.3647 201.421 69.621 198.938Z" fill="#E6E6E6"/>
<path d="M64.1208 184.34L62.9608 184.875C64.0264 187.207 65.0255 189.601 65.9301 191.995L67.1234 191.544C66.2077 189.123 65.2031 186.695 64.1208 184.34Z" fill="#E6E6E6"/>
<path d="M56.6835 170.656L55.6068 171.341C56.9777 173.501 58.2931 175.739 59.5141 177.982L60.6353 177.37C59.4032 175.098 58.0711 172.838 56.6835 170.656Z" fill="#E6E6E6"/>
<path d="M47.437 158.113L46.4657 158.942C48.1197 160.891 49.7292 162.929 51.2499 164.988L52.2712 164.226C50.7393 162.144 49.1131 160.084 47.437 158.113Z" fill="#E6E6E6"/>
<path d="M36.5698 146.945L35.7206 147.897C37.6298 149.606 39.5003 151.404 41.2819 153.236L42.1976 152.34C40.3939 150.486 38.5012 148.671 36.5698 146.945Z" fill="#E6E6E6"/>
<path d="M24.2928 137.358L23.5768 138.416C25.6969 139.846 27.7949 141.372 29.8096 142.947L30.5978 141.94C28.5553 140.348 26.4351 138.805 24.2928 137.358Z" fill="#E6E6E6"/>
<path d="M13.1202 130.699V132.147C14.4467 132.843 15.7621 133.572 17.0498 134.318L17.688 133.21C16.1895 132.342 14.6669 131.505 13.1202 130.699Z" fill="#E6E6E6"/>
<path d="M73.1537 229.917L74.4295 229.894C74.4529 231.186 74.4546 232.485 74.4347 233.756L73.159 233.736C73.1784 232.48 73.1767 231.195 73.1537 229.917Z" fill="#E6E6E6"/>
<path d="M329.486 159.042L328.226 159.237C328.62 161.765 328.931 164.348 329.159 166.904L330.43 166.792C330.202 164.203 329.886 161.598 329.486 159.042Z" fill="#E6E6E6"/>
<path d="M326.039 143.821L324.818 144.194C325.557 146.644 326.217 149.155 326.778 151.654L328.026 151.371C327.455 148.843 326.783 146.304 326.039 143.821Z" fill="#E6E6E6"/>
<path d="M320.539 129.224L319.379 129.759C320.445 132.091 321.444 134.485 322.349 136.879L323.542 136.428C322.626 134.006 321.621 131.579 320.539 129.224Z" fill="#E6E6E6"/>
<path d="M313.102 115.54L312.025 116.224C313.396 118.384 314.712 120.622 315.933 122.866L317.054 122.254C315.822 119.982 314.49 117.722 313.102 115.54Z" fill="#E6E6E6"/>
<path d="M303.855 102.997L302.884 103.826C304.538 105.775 306.148 107.812 307.668 109.872L308.69 109.109C307.158 107.027 305.531 104.967 303.855 102.997Z" fill="#E6E6E6"/>
<path d="M292.988 91.8286L292.139 92.7806C294.048 94.4898 295.919 96.288 297.7 98.1196L298.616 97.2233C296.812 95.3694 294.92 93.5545 292.988 91.8286Z" fill="#E6E6E6"/>
<path d="M280.711 82.2417L279.995 83.2995C282.115 84.7303 284.213 86.2557 286.228 87.8313L287.016 86.8235C284.974 85.2313 282.853 83.6892 280.711 82.2417Z" fill="#E6E6E6"/>
<path d="M269.539 75.583V77.0305C270.865 77.7264 272.18 78.4557 273.468 79.2018L274.106 78.0939C272.608 77.2253 271.085 76.3884 269.539 75.583Z" fill="#E6E6E6"/>
<path d="M329.572 174.801L330.848 174.778C330.871 176.07 330.873 177.369 330.853 178.639L329.577 178.619C329.597 177.364 329.595 176.079 329.572 174.801Z" fill="#E6E6E6"/>
<path d="M82.8614 111.287H81.9207V110.343H81.737V111.287H80.7957V111.471H81.737V112.415H81.9207V111.471H82.8614V111.287Z" fill="#F2F2F2"/>
<path d="M72.0158 168.272H71.0751V167.328H70.8914V168.272H69.9501V168.457H70.8914V169.4H71.0751V168.457H72.0158V168.272Z" fill="#F2F2F2"/>
<path d="M40.1927 218.215H39.2514V217.271H39.0677V218.215H38.127V218.399H39.0677V219.344H39.2514V218.399H40.1927V218.215Z" fill="#F2F2F2"/>
<path d="M128.719 154.872C119.62 141.306 115.67 124.918 117.584 108.68C119.497 92.4428 127.149 77.4307 139.151 66.3666C151.152 55.3025 166.71 48.9189 183.001 48.3735C199.292 47.8281 215.239 53.157 227.95 63.3939C240.66 73.6307 249.292 88.0976 252.281 104.171C255.27 120.245 252.418 136.86 244.241 151.005C236.064 165.15 223.105 175.887 207.713 181.27C192.321 186.652 175.516 186.324 160.345 180.344C159.361 183.865 157.523 187.087 154.993 189.721C152.464 192.354 149.323 194.318 145.852 195.436C142.38 196.553 138.687 196.79 135.102 196.124C131.517 195.459 128.152 193.912 125.31 191.623C122.467 189.333 120.234 186.372 118.812 183.005C117.39 179.637 116.822 175.969 117.16 172.328C117.498 168.686 118.73 165.186 120.748 162.14C122.765 159.093 125.504 156.597 128.719 154.872Z" fill="#3F3D56"/>
<path d="M184.892 77.6284C200.518 77.6284 211.269 86.3224 211.269 98.8199C211.269 107.096 207.269 112.822 199.56 117.378C192.309 121.6 189.851 124.693 189.851 130.043C189.851 130.476 189.766 130.906 189.6 131.306C189.435 131.707 189.192 132.071 188.887 132.378C188.581 132.684 188.218 132.928 187.819 133.093C187.419 133.259 186.991 133.345 186.559 133.345H178.571C177.717 133.345 176.898 133.013 176.284 132.418C175.67 131.824 175.31 131.013 175.281 130.158L175.267 129.75C174.558 121.14 177.558 115.79 185.1 111.359C192.143 107.138 195.101 104.463 195.101 99.2797C195.101 94.0968 190.101 90.2932 183.892 90.2932C179.173 90.2932 175.438 92.5973 173.725 96.3591C173.123 97.6325 172.17 98.7063 170.979 99.4535C169.788 100.201 168.408 100.59 167.003 100.575C161.591 100.575 158.015 94.8018 160.546 90.0029C164.55 82.4115 172.999 77.6284 184.892 77.6284ZM173.933 149.27C173.933 144.463 177.933 140.659 182.85 140.659C187.809 140.659 191.809 144.421 191.809 149.27C191.809 154.118 187.809 157.88 182.85 157.88C177.892 157.88 173.933 154.118 173.933 149.27Z" fill="white"/>
</g>
<defs>
<clipPath id="clip0">
<rect width="613" height="444" fill="white"/>
</clipPath>
</defs>
</svg>
