<svg width="71" height="71" viewBox="0 0 71 71" fill="none" xmlns="http://www.w3.org/2000/svg">
<path d="M45.8542 41.4167H43.5171L42.6888 40.6179C45.5879 37.2454 47.3333 32.8671 47.3333 28.1042C47.3333 17.4838 38.7246 8.875 28.1042 8.875C17.4838 8.875 8.875 17.4838 8.875 28.1042C8.875 38.7246 17.4838 47.3333 28.1042 47.3333C32.8671 47.3333 37.2454 45.5879 40.6179 42.6888L41.4167 43.5171V45.8542L56.2083 60.6162L60.6162 56.2083L45.8542 41.4167ZM28.1042 41.4167C20.7379 41.4167 14.7917 35.4704 14.7917 28.1042C14.7917 20.7379 20.7379 14.7917 28.1042 14.7917C35.4704 14.7917 41.4167 20.7379 41.4167 28.1042C41.4167 35.4704 35.4704 41.4167 28.1042 41.4167Z" fill="white"/>
</svg>
